<?xml version="1.0" encoding="UTF-8"?>
<!DOCTYPE svg PUBLIC "-//W3C//DTD SVG 1.1//EN" "http://www.w3.org/Graphics/SVG/1.1/DTD/svg11.dtd">
<svg xmlns="http://www.w3.org/2000/svg" version="1.1" width="512px" height="512px" style="shape-rendering:geometricPrecision; text-rendering:geometricPrecision; image-rendering:optimizeQuality; fill-rule:evenodd; clip-rule:evenodd" xmlns:xlink="http://www.w3.org/1999/xlink">
<g><path style="opacity:0.986" fill="#fefffe" d="M 97.5,34.5 C 108.054,32.7598 117.22,35.4264 125,42.5C 137.919,64.0025 150.586,85.6692 163,107.5C 173.355,125.064 170.189,139.564 153.5,151C 141.001,158.082 128.668,165.415 116.5,173C 115.919,173.893 115.585,174.893 115.5,176C 131.755,231.017 157.589,280.851 193,325.5C 200.891,334.635 209.224,343.301 218,351.5C 233.626,342.604 249.46,334.104 265.5,326C 279.161,323.326 289.661,327.826 297,339.5C 310.253,362.338 323.253,385.338 336,408.5C 339.236,420.651 336.069,430.817 326.5,439C 300.955,451.606 275.288,463.939 249.5,476C 241.415,475.865 233.748,473.865 226.5,470C 207.275,460.226 189.608,448.226 173.5,434C 103.323,365.532 54.1562,284.032 26,189.5C 18.3954,162.664 15.3954,135.331 17,107.5C 17.6272,100.737 18.7939,94.0701 20.5,87.5C 21.545,85.7951 22.8783,84.2951 24.5,83C 45.8333,68.3333 67.1667,53.6667 88.5,39C 91.5919,37.4541 94.5919,35.9541 97.5,34.5 Z"/></g>
<g><path style="opacity:0.986" fill="#fefffe" d="M 188.5,106.5 C 283.501,106.333 378.501,106.5 473.5,107C 417.07,145.629 360.57,184.129 304,222.5C 265.257,196.543 226.757,170.21 188.5,143.5C 193.413,131.204 193.413,118.871 188.5,106.5 Z"/></g>
<g><path style="opacity:0.987" fill="#fefffe" d="M 491.5,121.5 C 492.5,121.5 493.5,121.5 494.5,121.5C 494.667,198.834 494.5,276.167 494,353.5C 491.406,360.428 486.573,364.928 479.5,367C 432.496,367.833 385.496,367.667 338.5,366.5C 329.087,349.333 318.92,332.666 308,316.5C 291.936,302.277 273.77,298.777 253.5,306C 242.758,311.453 232.258,317.286 222,323.5C 186.226,282.986 159.393,236.986 141.5,185.5C 152.877,177.722 164.377,170.056 176,162.5C 216.5,190.333 257,218.167 297.5,246C 301.351,248.635 305.351,248.969 309.5,247C 370.407,205.391 431.074,163.558 491.5,121.5 Z"/></g>
</svg>
