<?xml version="1.0" encoding="UTF-8"?>
<!DOCTYPE svg PUBLIC "-//W3C//DTD SVG 1.1//EN" "http://www.w3.org/Graphics/SVG/1.1/DTD/svg11.dtd">
<svg xmlns="http://www.w3.org/2000/svg" version="1.1" width="512px" height="512px" style="shape-rendering:geometricPrecision; text-rendering:geometricPrecision; image-rendering:optimizeQuality; fill-rule:evenodd; clip-rule:evenodd" xmlns:xlink="http://www.w3.org/1999/xlink">
<g><path style="opacity:0.97" fill="#000000" d="M 254.5,70.5 C 267.681,69.8277 275.848,75.8277 279,88.5C 279.333,154.167 279.667,219.833 280,285.5C 302.167,263.333 324.333,241.167 346.5,219C 355.291,213.452 364.291,213.119 373.5,218C 382.29,226.657 383.79,236.491 378,247.5C 342.167,283.333 306.333,319.167 270.5,355C 260.464,360.366 251.131,359.366 242.5,352C 208.667,318.167 174.833,284.333 141,250.5C 131.964,238.327 133.131,227.16 144.5,217C 152.685,213.4 160.685,213.733 168.5,218C 191.333,240.833 214.167,263.667 237,286.5C 237.333,219.833 237.667,153.167 238,86.5C 240.786,78.2114 246.286,72.8781 254.5,70.5 Z"/></g>
<g><path style="opacity:0.972" fill="#000000" d="M 93.5,336.5 C 102.868,336.929 109.702,341.263 114,349.5C 115.279,367.448 115.946,385.448 116,403.5C 118.167,411 123,415.833 130.5,418C 215.833,418.667 301.167,418.667 386.5,418C 392.91,415.925 397.41,411.758 400,405.5C 401.265,387.544 401.931,369.544 402,351.5C 407.327,339.169 416.493,334.669 429.5,338C 435.667,340.167 439.833,344.333 442,350.5C 443.958,370.487 443.958,390.487 442,410.5C 435.279,437.888 418.112,454.388 390.5,460C 300.465,460.987 210.465,460.654 120.5,459C 96.2325,452.399 81.0659,436.899 75,412.5C 73.4081,392.538 73.0748,372.538 74,352.5C 77.1065,342.883 83.6065,337.549 93.5,336.5 Z"/></g>
</svg>
