<?xml version="1.0" encoding="UTF-8"?>
<!DOCTYPE svg PUBLIC "-//W3C//DTD SVG 1.1//EN" "http://www.w3.org/Graphics/SVG/1.1/DTD/svg11.dtd">
<svg xmlns="http://www.w3.org/2000/svg" version="1.1" width="512px" height="512px" style="shape-rendering:geometricPrecision; text-rendering:geometricPrecision; image-rendering:optimizeQuality; fill-rule:evenodd; clip-rule:evenodd" xmlns:xlink="http://www.w3.org/1999/xlink">
<g><path style="opacity:0.991" fill="#f03c2d" d="M 232.5,-0.5 C 247.833,-0.5 263.167,-0.5 278.5,-0.5C 368.144,10.3879 435.644,54.7213 481,132.5C 497.695,163.971 507.861,197.304 511.5,232.5C 511.5,247.833 511.5,263.167 511.5,278.5C 500.612,368.144 456.279,435.644 378.5,481C 347.029,497.695 313.696,507.861 278.5,511.5C 263.167,511.5 247.833,511.5 232.5,511.5C 142.856,500.612 75.3562,456.279 30,378.5C 13.3053,347.029 3.1386,313.696 -0.5,278.5C -0.5,263.167 -0.5,247.833 -0.5,232.5C 10.3875,142.857 54.7208,75.3573 132.5,30C 163.971,13.3053 197.304,3.1386 232.5,-0.5 Z M 106.5,153.5 C 205.666,152.334 304.999,152.168 404.5,153C 359.167,198.333 313.833,243.667 268.5,289C 259.833,289.667 251.167,289.667 242.5,289C 197.299,243.632 151.965,198.465 106.5,153.5 Z M 93.5,166.5 C 124.812,197.146 155.812,228.146 186.5,259.5C 155.847,290.653 125.014,321.653 94,352.5C 93.5,290.501 93.3333,228.501 93.5,166.5 Z M 416.5,166.5 C 417.665,228.332 417.832,290.332 417,352.5C 385.986,321.653 355.153,290.653 324.5,259.5C 355.188,228.479 385.854,197.479 416.5,166.5 Z M 199.5,272.5 C 210.965,283.465 222.298,294.631 233.5,306C 240.733,307.133 248.066,307.633 255.5,307.5C 262.934,307.633 270.267,307.133 277.5,306C 288.667,294.833 299.833,283.667 311,272.5C 339.5,301 368,329.5 396.5,358C 302.5,358.667 208.5,358.667 114.5,358C 143.035,329.632 171.368,301.132 199.5,272.5 Z"/></g>
</svg>
