<?xml version="1.0" encoding="UTF-8"?>
<!DOCTYPE svg PUBLIC "-//W3C//DTD SVG 1.1//EN" "http://www.w3.org/Graphics/SVG/1.1/DTD/svg11.dtd">
<svg xmlns="http://www.w3.org/2000/svg" version="1.1" width="512px" height="512px" style="shape-rendering:geometricPrecision; text-rendering:geometricPrecision; image-rendering:optimizeQuality; fill-rule:evenodd; clip-rule:evenodd" xmlns:xlink="http://www.w3.org/1999/xlink">
<g><path style="opacity:0.99" fill="#f03b2d" d="M 511.5,248.5 C 511.5,253.167 511.5,257.833 511.5,262.5C 472.782,318.707 422.116,360.541 359.5,388C 262.976,423.81 172.643,412.143 88.5,353C 53.559,327.887 23.8924,297.72 -0.5,262.5C -0.5,257.833 -0.5,253.167 -0.5,248.5C 39.6744,191.172 92.0078,148.672 156.5,121C 251.583,87.6788 340.25,100.012 422.5,158C 457.441,183.113 487.108,213.28 511.5,248.5 Z M 243.5,148.5 C 288.728,146.196 323.561,163.862 348,201.5C 369.894,243.761 366.894,284.094 339,322.5C 308.214,357.648 270.048,369.481 224.5,358C 181.574,342.734 156.407,312.567 149,267.5C 146.208,222.249 163.708,187.416 201.5,163C 214.765,155.635 228.765,150.802 243.5,148.5 Z"/></g>
<g><path style="opacity:0.987" fill="#f03b2d" d="M 254.5,196.5 C 291.014,199.347 311.014,219.014 314.5,255.5C 312.104,286.059 296.104,305.226 266.5,313C 230.666,316.48 207.833,300.98 198,266.5C 194.209,234.569 207.042,212.403 236.5,200C 242.556,198.374 248.556,197.208 254.5,196.5 Z"/></g>
</svg>
