<?xml version="1.0" encoding="UTF-8"?>
<!DOCTYPE svg PUBLIC "-//W3C//DTD SVG 1.1//EN" "http://www.w3.org/Graphics/SVG/1.1/DTD/svg11.dtd">
<svg xmlns="http://www.w3.org/2000/svg" version="1.1" width="512px" height="512px" style="shape-rendering:geometricPrecision; text-rendering:geometricPrecision; image-rendering:optimizeQuality; fill-rule:evenodd; clip-rule:evenodd" xmlns:xlink="http://www.w3.org/1999/xlink">
<g><path style="opacity:0.996" fill="#f03c2e" d="M 232.5,-0.5 C 247.833,-0.5 263.167,-0.5 278.5,-0.5C 368.144,10.3879 435.644,54.7213 481,132.5C 497.695,163.971 507.861,197.304 511.5,232.5C 511.5,247.833 511.5,263.167 511.5,278.5C 500.612,368.144 456.279,435.644 378.5,481C 347.03,497.695 313.697,507.861 278.5,511.5C 263.167,511.5 247.833,511.5 232.5,511.5C 142.856,500.612 75.3562,456.279 30,378.5C 13.3053,347.029 3.1386,313.696 -0.5,278.5C -0.5,263.167 -0.5,247.833 -0.5,232.5C 10.3875,142.857 54.7208,75.3573 132.5,30C 163.971,13.3053 197.304,3.1386 232.5,-0.5 Z"/></g>
<g><path style="opacity:1" fill="#f1f0f0" d="M 151.5,108.5 C 184.274,109.097 196.441,125.097 188,156.5C 180.2,167.4 169.533,172.733 156,172.5C 140.035,172.202 129.369,164.535 124,149.5C 120.732,127.345 129.898,113.678 151.5,108.5 Z"/></g>
<g><path style="opacity:1" fill="#f1f1f1" d="M 282.5,197.5 C 282.334,206.173 282.5,214.84 283,223.5C 283.717,222.956 284.217,222.289 284.5,221.5C 296.624,202.768 313.957,193.434 336.5,193.5C 367.856,192.756 389.689,206.756 402,235.5C 404.47,243.714 406.47,252.047 408,260.5C 408.5,300.832 408.667,341.165 408.5,381.5C 388.167,381.5 367.833,381.5 347.5,381.5C 347.969,343.46 347.469,305.46 346,267.5C 340.604,246.126 327.104,237.959 305.5,243C 293.233,248.267 285.733,257.434 283,270.5C 282.5,307.498 282.333,344.498 282.5,381.5C 262.167,381.5 241.833,381.5 221.5,381.5C 221.5,320.167 221.5,258.833 221.5,197.5C 241.833,197.5 262.167,197.5 282.5,197.5 Z"/></g>
<g><path style="opacity:1" fill="#f1f1f1" d="M 126.5,197.5 C 146.833,197.5 167.167,197.5 187.5,197.5C 187.5,258.833 187.5,320.167 187.5,381.5C 167.167,381.5 146.833,381.5 126.5,381.5C 126.5,320.167 126.5,258.833 126.5,197.5 Z"/></g>
<g><path style="opacity:1" fill="#f08077" d="M 282.5,197.5 C 283.167,205.5 283.833,213.5 284.5,221.5C 284.217,222.289 283.717,222.956 283,223.5C 282.5,214.84 282.334,206.173 282.5,197.5 Z"/></g>
</svg>
