<?xml version="1.0" encoding="UTF-8"?>
<!DOCTYPE svg PUBLIC "-//W3C//DTD SVG 1.1//EN" "http://www.w3.org/Graphics/SVG/1.1/DTD/svg11.dtd">
<svg xmlns="http://www.w3.org/2000/svg" version="1.1" width="512px" height="512px" style="shape-rendering:geometricPrecision; text-rendering:geometricPrecision; image-rendering:optimizeQuality; fill-rule:evenodd; clip-rule:evenodd" xmlns:xlink="http://www.w3.org/1999/xlink">
<g><path style="opacity:0.995" fill="#f03b2d" d="M 233.5,-0.5 C 248.167,-0.5 262.833,-0.5 277.5,-0.5C 367.557,10.0952 435.39,54.4286 481,132.5C 497.694,163.968 507.861,197.302 511.5,232.5C 511.5,247.833 511.5,263.167 511.5,278.5C 501.693,362.758 461.36,427.925 390.5,474C 355.578,495.03 317.912,507.53 277.5,511.5C 262.833,511.5 248.167,511.5 233.5,511.5C 133.193,499.016 61.693,447.016 19,355.5C 8.70393,330.316 2.20393,304.316 -0.5,277.5C -0.5,262.5 -0.5,247.5 -0.5,232.5C 9.30698,148.242 49.6403,83.0754 120.5,37C 155.422,15.9704 193.088,3.4704 233.5,-0.5 Z M 160.5,122.5 C 163.649,122.211 166.649,122.711 169.5,124C 186.333,140.833 203.167,157.667 220,174.5C 223.333,178.5 223.333,182.5 220,186.5C 209.667,196.833 199.333,207.167 189,217.5C 184.272,225.316 183.272,233.649 186,242.5C 208.5,274.333 235.667,301.5 267.5,324C 275.333,328.183 283.333,328.516 291.5,325C 303.137,314.363 314.471,303.363 325.5,292C 329.5,290 333.5,290 337.5,292C 355.029,309.195 372.196,326.695 389,344.5C 389.817,347.964 389.483,351.298 388,354.5C 377.588,367.107 365.088,376.94 350.5,384C 337.455,388.669 324.121,389.669 310.5,387C 271.791,375.561 237.458,356.561 207.5,330C 175.424,301.678 150.258,268.178 132,229.5C 127.864,219.757 124.53,209.757 122,199.5C 119.441,180.403 123.774,163.069 135,147.5C 142.732,138.267 151.232,129.934 160.5,122.5 Z"/></g>
</svg>
